# xmcd CD database file
#
# Track frame offsets:
#	150
#	19337
#	40251
#	64828
#	82892
#	101405
#	123430
#	146220
#	168252
#	188318
#	207432
#	225494
#
# Disc length: 3270 seconds
#
# Revision: 0
# Processed by: cddbd v1.5.2PL0 Copyright (c) Steve Scherf et al.
# Submitted via: jetAudio 7
#
DISCID=990cc40c
DTITLE=水琉璃  - 琉璃海
DYEAR=1900
DGENRE=Vocal
TTITLE0=琉璃海
TTITLE1=禮佛
TTITLE2=我佛慈悲
TTITLE3=婆娑
TTITLE4=升華
TTITLE5=雨過天青
TTITLE6=朝聖
TTITLE7=夜
TTITLE8=雲間琉璃
TTITLE9=秀雲
TTITLE10=嫦娥
TTITLE11=桃花源
EXTD=
EXTT0=
EXTT1=
EXTT2=
EXTT3=
EXTT4=
EXTT5=
EXTT6=
EXTT7=
EXTT8=
EXTT9=
EXTT10=
EXTT11=
PLAYORDER=
